<svg id="Layer_5" enable-background="new 0 0 64 64" height="512" viewBox="0 0 64 64" width="512" xmlns="http://www.w3.org/2000/svg"><path d="m55.452 29c4.503-2.591 7.548-7.442 7.548-13 0-8.271-6.729-15-15-15s-15 6.729-15 15c0 1.759.319 3.51.923 5.158-.629-.094-1.268-.158-1.923-.158s-1.294.064-1.923.158c.604-1.648.923-3.399.923-5.158 0-8.271-6.729-15-15-15s-15 6.729-15 15c0 5.558 3.045 10.409 7.548 13h-.962l-6.586 6.586v18.828l6-6v7.586c0 3.859 3.141 7 7 7h36c3.859 0 7-3.141 7-7v-7.586l6 6v-18.828l-6.586-6.586zm-.452 2v14h-16.104c3.659-2.303 6.104-6.367 6.104-11 0-1.034-.134-2.035-.363-3zm-3.998-11.153-9.891-1.413c-1.204-.172-2.111-1.218-2.111-2.434s.907-2.262 2.111-2.435l9.891-1.413zm-10.002.592 2 .286v4.275c0 .482-.349.866-.804.96-.369-.467-.768-.907-1.196-1.319zm-6-4.439c0-7.168 5.832-13 13-13s13 5.832 13 13-5.832 13-13 13c-1.485 0-2.953-.27-4.373-.78-.093-.185-.183-.372-.284-.552.978-.495 1.657-1.499 1.657-2.668v-3.99l6.152.879c.381 1.218 1.507 2.111 2.85 2.111 1.654 0 3-1.346 3-3v-10c0-1.654-1.346-3-3-3-1.343 0-2.469.893-2.85 2.111l-10.323 1.475c-2.183.312-3.829 2.209-3.829 4.414 0 1.523.795 2.885 2 3.693v3.37c-.818-.525-1.698-.956-2.626-1.29-.89-1.789-1.374-3.773-1.374-5.773zm18.002 5v-10c0-.551.448-1 1-1s1 .449 1 1v10c0 .551-.448 1-1 1s-1-.449-1-1zm-10.002 13c0 6.065-4.935 11-11 11s-11-4.935-11-11 4.935-11 11-11 11 4.935 11 11zm-40-18c0-7.168 5.832-13 13-13s13 5.832 13 13c0 2-.484 3.984-1.374 5.773-3.168 1.137-5.764 3.464-7.253 6.447-1.42.51-2.888.78-4.373.78-7.168 0-13-5.832-13-13zm16.363 15c-.229.965-.363 1.966-.363 3 0 4.633 2.445 8.697 6.104 11h-16.104v-14zm-16.363 18.586v-13.172l4-4v13.172zm47 11.414h-36c-2.757 0-5-2.243-5-5v-9h46v9c0 2.757-2.243 5-5 5zm11-11.414-4-4v-13.172l4 4z"/><path d="m32 39c-1.103 0-2-.897-2-2h-2c0 1.859 1.279 3.411 3 3.858v2.142h2v-2h3v-4c0-2.206-1.794-4-4-4-1.103 0-2-.897-2-2v-2h2c1.103 0 2 .897 2 2h2c0-1.858-1.279-3.411-3-3.858v-2.142h-2v2h-3v4c0 2.206 1.794 4 4 4 1.103 0 2 .897 2 2v2z"/><path d="m23.104 19.781c1.222-1.572 1.896-3.534 1.896-5.526v-.255c0-4.962-4.037-9-9-9s-9 4.038-9 9v.255c0 1.992.674 3.954 1.896 5.525l4.7 6.044c.582.748 1.458 1.176 2.404 1.176s1.822-.428 2.403-1.176zm-6.279 4.815c-.4.514-1.25.513-1.65 0l-4.7-6.044c-.952-1.222-1.475-2.748-1.475-4.297v-.255c0-3.86 3.141-7 7-7s7 3.14 7 7v.255c0 1.549-.523 3.075-1.475 4.297z"/><path d="m16 9c-2.757 0-5 2.243-5 5s2.243 5 5 5 5-2.243 5-5-2.243-5-5-5zm0 8c-1.654 0-3-1.346-3-3s1.346-3 3-3 3 1.346 3 3-1.346 3-3 3z"/><path d="m39 33h2v2h-2z"/><path d="m23 33h2v2h-2z"/><path d="m49 57h2v2h-2z"/><path d="m45 57h2v2h-2z"/><path d="m41 57h2v2h-2z"/><path d="m41 53h10v2h-10z"/><path d="m11 33h2v2h-2z"/><path d="m11 37h2v2h-2z"/><path d="m11 41h2v2h-2z"/><path d="m51 41h2v2h-2z"/><path d="m51 37h2v2h-2z"/><path d="m51 33h2v2h-2z"/></svg>