<?xml version="1.0" encoding="UTF-8"?>
<svg xmlns="http://www.w3.org/2000/svg" id="Outline" viewBox="0 0 512 512" width="512" height="512"><path d="M160,96a24,24,0,1,0-24-24A24.027,24.027,0,0,0,160,96Zm0-32a8,8,0,1,1-8,8A8.009,8.009,0,0,1,160,64Z"/><path d="M184,168a24,24,0,1,0-24,24A24.027,24.027,0,0,0,184,168Zm-32,0a8,8,0,1,1,8,8A8.009,8.009,0,0,1,152,168Z"/><path d="M112,96a24,24,0,1,0,24,24A24.027,24.027,0,0,0,112,96Zm0,32a8,8,0,1,1,8-8A8.009,8.009,0,0,1,112,128Z"/><path d="M311.155,395.578,324.944,368H376a24.027,24.027,0,0,0,24-24v-8.635l67.412,47.189A8,8,0,0,0,480,376V200a8,8,0,0,0-13-6.247l-67,53.6V232a24.027,24.027,0,0,0-24-24H359.752A67.95,67.95,0,0,0,339.093,92.044l-126.3-61.635-.008.015A103.973,103.973,0,1,0,109.068,210.646,24.017,24.017,0,0,0,96,232H80V216a8,8,0,0,0-8-8H40a8,8,0,0,0-8,8V360a8,8,0,0,0,8,8H72a8,8,0,0,0,8-8V344H96a24.027,24.027,0,0,0,24,24h43.056l13.789,27.578A8,8,0,0,0,184,400h36l-35.385,84.923a8,8,0,1,0,14.77,6.154L232,412.8V488a8,8,0,0,0,16,0V412.8l32.615,78.276a8,8,0,0,0,14.77-6.154L260,400h44A8,8,0,0,0,311.155,395.578ZM64,352H48V224H64ZM464,216.645v143.99l-64-44.8v-47.99ZM368,156a52,52,0,1,1-52-52A52.059,52.059,0,0,1,368,156ZM263.731,112.559A103.291,103.291,0,0,0,248.68,65.726L298.832,90.2A68.133,68.133,0,0,0,263.731,112.559Zm-13.778,59.587A68.1,68.1,0,0,0,272.248,208H215.363A104.8,104.8,0,0,0,249.953,172.146ZM72,120a88,88,0,1,1,88,88A88.1,88.1,0,0,1,72,120Zm8,208V248H96v80Zm32,16V232a8.009,8.009,0,0,1,8-8H376a8.009,8.009,0,0,1,8,8V344a8.009,8.009,0,0,1-8,8H120A8.009,8.009,0,0,1,112,344Zm136.078,40H188.944l-8-16H307.056l-8,16Z"/><path d="M208,144a24,24,0,1,0-24-24A24.027,24.027,0,0,0,208,144Zm0-32a8,8,0,1,1-8,8A8.009,8.009,0,0,1,208,112Z"/><path d="M268.8,281.6l-32-24A8,8,0,0,0,224,264v48a8,8,0,0,0,12.8,6.4l32-24a8,8,0,0,0,0-12.8ZM240,296V280l10.667,8Z"/></svg>
